<svg version="1.1" xmlns="http://www.w3.org/2000/svg" x="0px" y="0px" width="284px" height="56.75px" viewBox="0 0 284 56.75">
    <g>
        <g transform="matrix(1.0923448,0,0,1.0923448,2.0474696,22.63079)">
            <g transform="translate(-36,-62)">
                <g id="g4401" transform="translate(0,-1.0850912)">
                    <g id="olin-o" transform="matrix(1.0638404,0,0,1.0638404,33.197945,52.024776)">
                        <path id="Line" d="M67.216-6.426c8.57,12.586-17.53,39.837-29.275,42.14
                            C87.914,40.089,119.387,4.317,67.216-6.426z"/>
                        <path id="path14" d="M29.42,34.792C21.514,23.968,44.774-3.666,58.898-7.351
                            C8.08-10.268-22.32,24.121,29.42,34.792z"/>
                    </g>
                </g>
            </g>
        </g>
        <g class="olin-name olin-college">
            <path d="M135.372,21.317c-1.3,1.3-2.886,2.028-4.992,2.028s-3.718-0.729-5.018-2.028
                c-1.872-1.872-1.82-4.187-1.82-7.384c0-3.198-0.052-5.513,1.82-7.385c1.3-1.3,2.912-2.028,5.018-2.028s3.692,0.729,4.992,2.028
                c1.872,1.872,1.846,4.187,1.846,7.385C137.217,17.13,137.244,19.445,135.372,21.317z M132.693,8.732
                c-0.52-0.598-1.326-0.987-2.314-0.987c-0.988,0-1.82,0.39-2.34,0.987c-0.702,0.78-0.884,1.639-0.884,5.201
                s0.182,4.42,0.884,5.199c0.52,0.599,1.352,0.988,2.34,0.988c0.988,0,1.794-0.39,2.314-0.988c0.702-0.779,0.91-1.638,0.91-5.199
                C133.604,10.372,133.396,9.513,132.693,8.732z"/>
            <path d="M144.473,23.189c-2.784,0-3.954-1.95-3.954-3.874V4.676h3.381v14.431c0,0.806,0.338,1.222,1.195,1.222
                h1.301v2.86H144.473z"/>
            <path d="M149.047,7.33V4.572h3.459V7.33H149.047z M149.1,23.189V9.643h3.381v13.547H149.1z"/>
            <path d="M164.127,23.189V15c0-1.846-1.17-2.47-2.234-2.47c-1.066,0-2.264,0.624-2.264,2.47v8.19h-3.379V9.643
                h3.301v1.248c0.885-0.936,2.133-1.403,3.381-1.403c1.354,0,2.443,0.441,3.197,1.195c1.094,1.093,1.377,2.366,1.377,3.849v8.658
                H164.127z"/>
            <path d="M183.625,23.346c-2.025,0-3.689-0.729-4.992-2.028c-1.869-1.872-1.816-4.187-1.816-7.384
                c0-3.198-0.053-5.513,1.816-7.385c1.303-1.3,2.967-2.028,4.992-2.028c3.459,0,6.164,1.977,6.814,5.851h-3.668
                c-0.363-1.482-1.299-2.626-3.119-2.626c-0.988,0-1.795,0.364-2.314,0.962c-0.699,0.78-0.908,1.664-0.908,5.227
                c0,3.562,0.209,4.445,0.908,5.226c0.521,0.599,1.326,0.962,2.314,0.962c1.82,0,2.756-1.144,3.119-2.626h3.668
                C189.791,21.369,187.061,23.346,183.625,23.346z"/>
            <path d="M202.66,21.682c-0.832,0.884-2.209,1.664-4.211,1.664c-2.004,0-3.355-0.78-4.188-1.664
                c-1.225-1.274-1.533-2.809-1.533-5.278c0-2.444,0.313-3.979,1.533-5.252c0.83-0.885,2.184-1.664,4.188-1.664
                c2.002,0,3.379,0.779,4.211,1.664c1.223,1.273,1.533,2.808,1.533,5.252C204.193,18.874,203.881,20.407,202.66,21.682z
                 M200.035,13.127c-0.391-0.39-0.91-0.598-1.586-0.598c-0.678,0-1.172,0.208-1.561,0.598c-0.703,0.702-0.781,1.872-0.781,3.276
                c0,1.404,0.078,2.6,0.781,3.302c0.389,0.391,0.883,0.599,1.561,0.599c0.676,0,1.195-0.208,1.586-0.599
                c0.701-0.702,0.779-1.897,0.779-3.302C200.814,14.999,200.736,13.83,200.035,13.127z"/>
            <path d="M211.24,23.189c-2.783,0-3.953-1.95-3.953-3.874V4.676h3.381v14.431c0,0.806,0.338,1.222,1.195,1.222
                h1.301v2.86H211.24z"/>
            <path d="M219.689,23.189c-2.781,0-3.951-1.95-3.951-3.874V4.676h3.379v14.431c0,0.806,0.34,1.222,1.197,1.222
                h1.299v2.86H219.689z"/>
            <path d="M226.32,17.468c0,1.742,1.063,3.017,2.963,3.017c1.482,0,2.211-0.416,3.068-1.274l2.055,2.001
                c-1.379,1.379-2.705,2.134-5.148,2.134c-3.195,0-6.266-1.456-6.266-6.942c0-4.42,2.391-6.916,5.902-6.916
                c3.77,0,5.9,2.756,5.9,6.474v1.508h-8.477v-0.002H226.32z M231.156,13.699c-0.365-0.807-1.119-1.404-2.262-1.404
                c-1.146,0-1.898,0.598-2.266,1.404c-0.207,0.494-0.283,0.857-0.311,1.456h5.146C231.441,14.557,231.363,14.193,231.156,13.699z"
                />
            <path d="M242.596,28.312c-2.08,0-3.512-0.416-4.914-1.769l2.104-2.133c0.754,0.729,1.508,1.04,2.652,1.04
                c2.025,0,2.729-1.43,2.729-2.808v-1.378c-0.885,0.987-1.896,1.352-3.225,1.352c-1.326,0-2.471-0.44-3.227-1.194
                c-1.271-1.274-1.377-3.018-1.377-5.383c0-2.366,0.105-4.082,1.377-5.356c0.756-0.754,1.926-1.195,3.25-1.195
                c1.432,0,2.367,0.39,3.305,1.43V9.644h3.273v13.053C248.547,25.945,246.236,28.312,242.596,28.312z M242.934,12.529
                c-2.002,0-2.211,1.716-2.211,3.51s0.209,3.536,2.211,3.536s2.234-1.742,2.234-3.536S244.936,12.529,242.934,12.529z"/>
            <path d="M254.996,17.468c0,1.742,1.066,3.017,2.965,3.017c1.482,0,2.211-0.416,3.068-1.274l2.055,2.001
                c-1.379,1.379-2.705,2.134-5.146,2.134c-3.199,0-6.27-1.456-6.27-6.942c0-4.42,2.395-6.916,5.902-6.916
                c3.77,0,5.902,2.756,5.902,6.474v1.508h-8.479v-0.002H254.996z M259.832,13.699c-0.365-0.807-1.119-1.404-2.264-1.404
                s-1.896,0.598-2.262,1.404c-0.207,0.494-0.285,0.857-0.314,1.456h5.148C260.119,14.557,260.041,14.193,259.832,13.699z"/>
        </g>
        <g class="olin-name of-engineering">
            <path d="M132.129,47.533c-0.867,0.867-2.04,1.352-3.417,1.352s-2.55-0.482-3.417-1.352
                c-1.3-1.301-1.53-3.188-1.53-4.945c0-1.76,0.229-3.646,1.53-4.946c0.867-0.866,2.04-1.353,3.417-1.353
                c1.376,0,2.549,0.484,3.417,1.353c1.3,1.301,1.53,3.188,1.53,4.946S133.431,46.232,132.129,47.533z M131.263,38.481
                c-0.663-0.663-1.555-1.045-2.549-1.045c-0.995,0-1.887,0.382-2.55,1.045c-1.02,1.021-1.097,2.678-1.097,4.104
                c0,1.428,0.077,3.086,1.097,4.104c0.663,0.663,1.555,1.046,2.55,1.046c0.994,0,1.887-0.383,2.549-1.046
                c1.02-1.021,1.097-2.677,1.097-4.104S132.283,39.502,131.263,38.481z"/>
            <path d="M139.577,37.41v11.321h-1.301V37.41h-1.683v-0.969h1.683v-2.65c0-1.86,1.021-3.213,2.958-3.213h1.122
                v1.146h-0.892c-1.3,0-1.887,0.765-1.887,2.04v2.677h2.778v0.969H139.577z"/>
            <path d="M152.479,48.731V30.578h11.016v1.223h-9.639v7.166h8.211v1.225h-8.211v7.316h9.639v1.226L152.479,48.731
                L152.479,48.731z"/>
            <path d="M175.555,48.731v-7.624c0-2.371-1.197-3.671-3.393-3.671c-2.191,0-3.467,1.351-3.467,3.671v7.624h-1.301
                v-12.29h1.301v1.454c0.918-1.071,2.141-1.606,3.619-1.606c1.377,0,2.475,0.407,3.264,1.174c0.816,0.789,1.275,1.963,1.275,3.416
                v7.854L175.555,48.731L175.555,48.731z"/>
            <path d="M185.451,54.75c-1.838,0-2.756-0.483-4.055-1.633l0.865-0.867c0.971,0.867,1.633,1.354,3.188,1.354
                c2.574,0,3.723-1.836,3.723-4.258v-2.193c-1.07,1.43-2.27,1.732-3.645,1.732c-1.273,0-2.371-0.434-3.01-1.069
                c-1.248-1.249-1.58-3.289-1.58-5.228c0-1.938,0.332-3.979,1.58-5.229c0.639-0.638,1.732-1.07,3.01-1.07
                c1.377,0,2.574,0.308,3.645,1.733v-1.581h1.301V49.42C190.473,52.504,188.637,54.75,185.451,54.75z M185.705,37.437
                c-3.01,0-3.469,2.601-3.469,5.149c0,2.547,0.459,5.149,3.469,5.149s3.469-2.603,3.469-5.149
                C189.174,40.037,188.711,37.437,185.705,37.437z"/>
            <path d="M195.268,32.184v-1.605h1.605v1.605H195.268z M195.418,48.731v-12.29h1.303v12.29H195.418z"/>
            <path d="M209.828,48.731v-7.624c0-2.371-1.199-3.671-3.393-3.671c-2.191,0-3.469,1.351-3.469,3.671v7.624h-1.301
                v-12.29h1.301v1.454c0.92-1.071,2.143-1.606,3.619-1.606c1.377,0,2.477,0.407,3.266,1.174c0.814,0.789,1.273,1.963,1.273,3.416
                v7.854L209.828,48.731L209.828,48.731z"/>
            <path d="M216.506,42.867c0,3.11,1.402,4.846,4.006,4.846c1.451,0,2.346-0.435,3.391-1.479l0.969,0.768
                c-1.248,1.248-2.396,1.887-4.436,1.887c-3.393,0-5.229-2.193-5.229-6.299c0-3.951,1.836-6.297,4.92-6.297
                c3.063,0,4.922,2.241,4.922,5.989v0.589h-8.543V42.867L216.506,42.867z M223.316,39.502c-0.535-1.273-1.785-2.063-3.189-2.063
                c-1.402,0-2.648,0.79-3.188,2.063c-0.307,0.767-0.381,1.146-0.434,2.319h7.24C223.699,40.648,223.623,40.267,223.316,39.502z"/>
            <path d="M229.846,42.867c0,3.11,1.4,4.846,4.002,4.846c1.453,0,2.346-0.435,3.393-1.479l0.969,0.768
                c-1.25,1.248-2.396,1.887-4.438,1.887c-3.393,0-5.229-2.193-5.229-6.299c0-3.951,1.836-6.297,4.922-6.297
                c3.061,0,4.92,2.241,4.92,5.989v0.589h-8.539V42.867L229.846,42.867z M236.652,39.502c-0.535-1.273-1.783-2.063-3.188-2.063
                c-1.402,0-2.65,0.79-3.188,2.063c-0.307,0.767-0.383,1.146-0.436,2.319h7.24C237.035,40.648,236.957,40.267,236.652,39.502z"/>
            <path d="M249.502,38.405c-0.736-0.739-1.299-0.969-2.318-0.969c-2.115,0-3.289,1.733-3.289,3.723v7.572h-1.299
                v-12.29h1.299v1.632c0.715-1.147,2.143-1.784,3.596-1.784c1.174,0,2.092,0.308,2.957,1.174L249.502,38.405z"/>
            <path d="M252.871,32.184v-1.605h1.607v1.605H252.871z M253.025,48.731v-12.29h1.299v12.29H253.025z"/>
            <path d="M267.432,48.731v-7.624c0-2.371-1.199-3.671-3.395-3.671c-2.189,0-3.467,1.351-3.467,3.671v7.624h-1.301
                v-12.29h1.301v1.454c0.918-1.071,2.141-1.606,3.621-1.606c1.377,0,2.473,0.407,3.264,1.174c0.814,0.789,1.273,1.963,1.273,3.416
                v7.854L267.432,48.731L267.432,48.731z"/>
            <path d="M277.326,54.75c-1.836,0-2.754-0.483-4.055-1.633l0.867-0.867c0.969,0.867,1.631,1.354,3.188,1.354
                c2.574,0,3.723-1.836,3.723-4.258v-2.193c-1.07,1.43-2.27,1.732-3.646,1.732c-1.273,0-2.369-0.434-3.01-1.069
                c-1.248-1.249-1.58-3.289-1.58-5.228c0-1.938,0.332-3.979,1.58-5.229c0.641-0.638,1.732-1.07,3.01-1.07
                c1.377,0,2.574,0.308,3.646,1.733v-1.581h1.301V49.42C282.348,52.504,280.514,54.75,277.326,54.75z M277.58,37.437
                c-3.008,0-3.467,2.601-3.467,5.149c0,2.547,0.459,5.149,3.467,5.149c3.01,0,3.469-2.603,3.469-5.149
                C281.049,40.037,280.588,37.437,277.58,37.437z"/>
        </g>
    </g>
</svg>
