<?xml version="1.0" encoding="UTF-8" standalone="no"?>
<svg xmlns="http://www.w3.org/2000/svg" width="290" height="56.75" viewBox="0 0 290 56.75">
  <g id="g80">
    <g transform="matrix(1.0585104,0,0,1.0585104,2.0459992,23.625654)"
       id="g12">
      <g transform="translate(-36,-62)"
         id="g10">
        <g transform="translate(0,-1.0850912)"
           id="g8">
          <g class="olin-o"
             transform="matrix(1.0638404,0,0,1.0638404,33.197945,52.024776)"
             id="g6">
            <path d="M 62.761,-3.36 C 70.74,8.358 46.44,33.73 35.504,35.874 82.032,39.948 111.335,6.642 62.761,-3.36 Z" />
            <path d="M 27.571,35.016 C 20.209,24.939 41.866,-0.791 55.016,-4.221 7.702,-6.938 -20.602,25.081 27.571,35.016 Z" />
          </g>
        </g>
      </g>
    </g>
    <g class="olin-name olin-college" transform="matrix(0.96902588,0,0,0.96902588,0.06194818,1.695833)">
      <path d="m 126.176,23.622 c -1.21,1.21 -2.688,1.889 -4.648,1.889 -1.961,0 -3.461,-0.679 -4.672,-1.889 -1.742,-1.743 -1.694,-3.898 -1.694,-6.875 0,-2.978 -0.048,-5.133 1.694,-6.876 1.211,-1.21 2.711,-1.888 4.672,-1.888 1.96,0 3.438,0.679 4.648,1.888 1.743,1.743 1.719,3.898 1.719,6.876 0,2.977 0.024,5.132 -1.719,6.875 z m -2.493,-11.717 c -0.484,-0.557 -1.234,-0.919 -2.154,-0.919 -0.919,0 -1.694,0.363 -2.179,0.919 -0.654,0.726 -0.823,1.526 -0.823,4.842 0,3.316 0.169,4.116 0.823,4.84 0.484,0.558 1.259,0.92 2.179,0.92 0.92,0 1.67,-0.363 2.154,-0.92 0.654,-0.725 0.848,-1.525 0.848,-4.84 -0.001,-3.316 -0.195,-4.116 -0.848,-4.842 z" />
      <path d="m 134.65,25.365 c -2.592,0 -3.681,-1.815 -3.681,-3.607 V 8.128 h 3.148 v 13.437 c 0,0.75 0.314,1.138 1.112,1.138 h 1.211 v 2.663 z" />
      <path d="M 138.908,10.599 V 8.032 h 3.221 v 2.567 z m 0.05,14.766 V 12.752 h 3.148 v 12.613 z" />
      <path d="M 152.949,25.365 V 17.74 c 0,-1.719 -1.09,-2.3 -2.081,-2.3 -0.992,0 -2.106,0.581 -2.106,2.3 v 7.625 h -3.146 V 12.752 h 3.071 v 1.162 c 0.824,-0.872 1.985,-1.307 3.147,-1.307 1.261,0 2.274,0.411 2.978,1.113 1.021,1.018 1.283,2.203 1.283,3.583 v 8.063 h -3.146 z" />
      <path d="m 171.104,25.511 c -1.887,0 -3.437,-0.679 -4.646,-1.889 -1.74,-1.743 -1.689,-3.898 -1.689,-6.875 0,-2.978 -0.051,-5.133 1.689,-6.876 1.212,-1.21 2.762,-1.888 4.646,-1.888 3.222,0 5.738,1.84 6.347,5.447 h -3.416 c -0.339,-1.38 -1.209,-2.445 -2.903,-2.445 -0.921,0 -1.672,0.339 -2.154,0.896 -0.65,0.726 -0.847,1.549 -0.847,4.867 0,3.316 0.194,4.138 0.847,4.866 0.484,0.557 1.233,0.895 2.154,0.895 1.694,0 2.564,-1.065 2.903,-2.445 h 3.416 c -0.607,3.607 -3.149,5.447 -6.347,5.447 z" />
      <path d="m 188.825,23.961 c -0.774,0.823 -2.056,1.549 -3.921,1.549 -1.865,0 -3.123,-0.726 -3.898,-1.549 -1.14,-1.187 -1.427,-2.615 -1.427,-4.915 0,-2.275 0.29,-3.705 1.427,-4.89 0.773,-0.824 2.033,-1.549 3.898,-1.549 1.865,0 3.146,0.726 3.921,1.549 1.139,1.185 1.428,2.614 1.428,4.89 0,2.301 -0.291,3.729 -1.428,4.915 z m -2.443,-7.964 c -0.364,-0.363 -0.848,-0.557 -1.478,-0.557 -0.631,0 -1.092,0.194 -1.452,0.557 -0.655,0.654 -0.728,1.743 -0.728,3.05 0,1.308 0.07,2.421 0.728,3.075 0.36,0.364 0.821,0.558 1.452,0.558 0.63,0 1.113,-0.194 1.478,-0.558 0.653,-0.654 0.726,-1.766 0.726,-3.075 -0.003,-1.308 -0.073,-2.396 -0.726,-3.05 z" />
      <path d="m 196.814,25.365 c -2.592,0 -3.683,-1.815 -3.683,-3.607 V 8.128 h 3.146 v 13.437 c 0,0.75 0.314,1.138 1.113,1.138 h 1.211 v 2.663 z" />
      <path d="m 204.682,25.365 c -2.59,0 -3.679,-1.815 -3.679,-3.607 V 8.128 h 3.146 v 13.437 c 0,0.75 0.316,1.138 1.115,1.138 h 1.209 v 2.663 z" />
      <path d="m 210.854,20.039 c 0,1.622 0.989,2.809 2.76,2.809 1.381,0 2.06,-0.387 2.857,-1.186 l 1.911,1.863 c -1.282,1.284 -2.519,1.987 -4.793,1.987 -2.976,0 -5.834,-1.356 -5.834,-6.464 0,-4.115 2.226,-6.439 5.495,-6.439 3.51,0 5.493,2.566 5.493,6.028 v 1.404 h -7.892 v -0.002 z m 4.503,-3.51 c -0.342,-0.751 -1.043,-1.307 -2.106,-1.307 -1.067,0 -1.769,0.557 -2.108,1.307 -0.191,0.46 -0.265,0.798 -0.289,1.356 h 4.791 c -0.022,-0.557 -0.095,-0.896 -0.288,-1.356 z" />
      <path d="m 226.008,30.135 c -1.938,0 -3.27,-0.388 -4.574,-1.647 l 1.957,-1.986 c 0.702,0.679 1.404,0.968 2.471,0.968 1.887,0 2.539,-1.331 2.539,-2.614 v -1.283 c -0.821,0.919 -1.766,1.258 -3.002,1.258 -1.232,0 -2.301,-0.41 -3.004,-1.112 -1.184,-1.187 -1.281,-2.81 -1.281,-5.012 0,-2.202 0.1,-3.801 1.281,-4.987 0.703,-0.702 1.793,-1.113 3.026,-1.113 1.333,0 2.204,0.363 3.077,1.332 v -1.186 h 3.047 v 12.153 c 0.004,3.025 -2.149,5.229 -5.537,5.229 z m 0.314,-14.695 c -1.864,0 -2.059,1.598 -2.059,3.269 0,1.671 0.195,3.291 2.059,3.291 1.863,0 2.08,-1.621 2.08,-3.292 0,-1.671 -0.214,-3.268 -2.08,-3.268 z" />
      <path d="m 237.555,20.039 c 0,1.622 0.991,2.809 2.76,2.809 1.381,0 2.06,-0.387 2.855,-1.186 l 1.913,1.863 c -1.283,1.284 -2.519,1.987 -4.791,1.987 -2.979,0 -5.838,-1.356 -5.838,-6.464 0,-4.115 2.229,-6.439 5.496,-6.439 3.51,0 5.495,2.566 5.495,6.028 v 1.404 h -7.896 v -0.002 z m 4.502,-3.51 c -0.341,-0.751 -1.043,-1.307 -2.106,-1.307 -1.065,0 -1.767,0.557 -2.104,1.307 -0.191,0.46 -0.267,0.798 -0.293,1.356 h 4.793 c -0.024,-0.557 -0.097,-0.896 -0.29,-1.356 z" />
    </g>
    <g class="olin-name of-engineering" transform="matrix(0.96902588,0,0,0.96902588,0.06194818,1.695833)">
      <path d="m 123.158,48.03 c -0.807,0.808 -1.899,1.259 -3.181,1.259 -1.283,0 -2.374,-0.449 -3.182,-1.259 -1.21,-1.212 -1.425,-2.968 -1.425,-4.604 0,-1.639 0.214,-3.395 1.425,-4.605 0.808,-0.807 1.899,-1.26 3.182,-1.26 1.281,0 2.373,0.451 3.181,1.26 1.211,1.213 1.425,2.971 1.425,4.605 0,1.637 -0.214,3.392 -1.425,4.604 z m -0.807,-8.426 c -0.618,-0.617 -1.448,-0.974 -2.373,-0.974 -0.927,0 -1.757,0.356 -2.374,0.974 -0.95,0.951 -1.022,2.494 -1.022,3.821 0,1.329 0.072,2.873 1.022,3.82 0.617,0.616 1.447,0.974 2.374,0.974 0.925,0 1.756,-0.354 2.373,-0.974 0.95,-0.951 1.021,-2.492 1.021,-3.82 0,-1.327 -0.071,-2.87 -1.021,-3.821 z" />
      <path d="M 130.091,38.605 V 49.146 H 128.88 V 38.605 h -1.567 v -0.902 h 1.567 v -2.467 c 0,-1.732 0.95,-2.991 2.754,-2.991 h 1.044 v 1.067 h -0.83 c -1.21,0 -1.757,0.711 -1.757,1.897 V 37.7 h 2.587 v 0.9 h -2.587 z" />
      <path d="M 142.104,49.146 V 32.245 h 10.255 v 1.139 h -8.976 v 6.671 h 7.646 v 1.141 h -7.646 v 6.813 h 8.976 v 1.144 z" />
      <path d="m 163.589,49.146 v -7.101 c 0,-2.208 -1.114,-3.418 -3.157,-3.418 -2.041,0 -3.229,1.258 -3.229,3.418 v 7.101 h -1.212 V 37.703 h 1.212 v 1.354 c 0.854,-0.996 1.992,-1.496 3.369,-1.496 1.281,0 2.304,0.379 3.039,1.096 0.76,0.732 1.187,1.826 1.187,3.181 v 7.313 z" />
      <path d="m 172.805,54.75 c -1.713,0 -2.566,-0.45 -3.775,-1.52 l 0.806,-0.81 c 0.903,0.81 1.521,1.261 2.97,1.261 2.396,0 3.467,-1.709 3.467,-3.965 v -2.042 c -0.996,1.331 -2.113,1.612 -3.396,1.612 -1.187,0 -2.207,-0.403 -2.804,-0.996 -1.161,-1.162 -1.471,-3.063 -1.471,-4.866 0,-1.803 0.31,-3.702 1.471,-4.866 0.597,-0.597 1.613,-0.998 2.804,-0.998 1.282,0 2.396,0.287 3.396,1.613 V 37.7 h 1.211 v 12.085 c -0.005,2.874 -1.714,4.965 -4.679,4.965 z m 0.235,-16.12 c -2.804,0 -3.229,2.422 -3.229,4.795 0,2.371 0.428,4.794 3.229,4.794 2.801,0 3.229,-2.423 3.229,-4.794 0.001,-2.373 -0.431,-4.795 -3.229,-4.795 z" />
      <path d="m 181.941,33.739 v -1.494 h 1.496 v 1.494 z m 0.142,15.407 V 37.703 h 1.213 v 11.443 z" />
      <path d="m 195.499,49.146 v -7.101 c 0,-2.208 -1.116,-3.418 -3.158,-3.418 -2.04,0 -3.229,1.258 -3.229,3.418 v 7.101 H 187.9 V 37.703 h 1.211 v 1.354 c 0.854,-0.996 1.994,-1.496 3.369,-1.496 1.281,0 2.307,0.379 3.041,1.096 0.758,0.732 1.186,1.826 1.186,3.181 v 7.313 z" />
      <path d="m 201.717,43.688 c 0,2.896 1.307,4.513 3.73,4.513 1.351,0 2.183,-0.405 3.156,-1.377 l 0.899,0.715 c -1.161,1.162 -2.229,1.756 -4.129,1.756 -3.159,0 -4.869,-2.042 -4.869,-5.862 0,-3.681 1.71,-5.863 4.581,-5.863 2.854,0 4.583,2.088 4.583,5.576 v 0.549 h -7.954 z m 6.342,-3.133 c -0.498,-1.188 -1.662,-1.923 -2.971,-1.923 -1.306,0 -2.466,0.735 -2.968,1.923 -0.285,0.713 -0.354,1.066 -0.403,2.157 h 6.74 c -0.043,-1.091 -0.113,-1.446 -0.398,-2.157 z" />
      <path d="m 214.137,43.688 c 0,2.896 1.305,4.513 3.727,4.513 1.354,0 2.186,-0.405 3.158,-1.377 l 0.901,0.715 c -1.163,1.162 -2.229,1.756 -4.131,1.756 -3.158,0 -4.868,-2.042 -4.868,-5.862 0,-3.681 1.71,-5.863 4.583,-5.863 2.849,0 4.58,2.088 4.58,5.576 v 0.549 h -7.95 z m 6.338,-3.133 c -0.498,-1.188 -1.66,-1.923 -2.968,-1.923 -1.306,0 -2.469,0.735 -2.969,1.923 -0.285,0.713 -0.354,1.066 -0.404,2.157 h 6.74 c -0.044,-1.091 -0.116,-1.446 -0.399,-2.157 z" />
      <path d="m 232.438,39.531 c -0.687,-0.688 -1.209,-0.901 -2.158,-0.901 -1.971,0 -3.063,1.614 -3.063,3.468 v 7.049 h -1.209 V 37.703 h 1.209 v 1.521 c 0.666,-1.068 1.995,-1.662 3.35,-1.662 1.094,0 1.947,0.287 2.752,1.094 z" />
      <path d="m 235.575,33.739 v -1.494 h 1.495 v 1.494 z m 0.143,15.407 V 37.703 h 1.21 v 11.443 z" />
      <path d="m 249.132,49.146 v -7.101 c 0,-2.208 -1.116,-3.418 -3.159,-3.418 -2.039,0 -3.229,1.258 -3.229,3.418 v 7.101 h -1.212 V 37.703 h 1.212 v 1.354 c 0.854,-0.996 1.992,-1.496 3.369,-1.496 1.283,0 2.304,0.379 3.039,1.096 0.761,0.732 1.188,1.826 1.188,3.181 v 7.313 z" />
      <path d="m 258.344,54.75 c -1.71,0 -2.564,-0.45 -3.775,-1.52 l 0.81,-0.81 c 0.901,0.81 1.521,1.261 2.97,1.261 2.396,0 3.467,-1.709 3.467,-3.965 v -2.042 c -0.998,1.331 -2.113,1.612 -3.396,1.612 -1.186,0 -2.206,-0.403 -2.803,-0.996 -1.162,-1.162 -1.471,-3.063 -1.471,-4.866 0,-1.803 0.309,-3.702 1.471,-4.866 0.597,-0.597 1.613,-0.998 2.803,-0.998 1.282,0 2.396,0.287 3.396,1.613 V 37.7 h 1.209 v 12.085 c -0.005,2.874 -1.712,4.965 -4.681,4.965 z m 0.236,-16.12 c -2.801,0 -3.229,2.422 -3.229,4.795 0,2.371 0.428,4.794 3.229,4.794 2.802,0 3.23,-2.423 3.23,-4.794 10e-4,-2.373 -0.43,-4.795 -3.23,-4.795 z" />
    </g>
    <g class="beta" transform="matrix(1.2981055,0,0,1.2981055,-75.117171,-1.2091159)">
      <rect class="beta-box" x="248.81799" y="4.0560002" width="30" height="12" />
      <g class="beta-text">
        <path d="m 254.672,14.041 h -3.168 V 6.208 h 3.047 c 1.453,0 2.365,0.825 2.365,2.146 0,0.847 -0.527,1.452 -1.056,1.661 0.604,0.242 1.177,0.825 1.177,1.815 0,1.441 -0.978,2.211 -2.365,2.211 z m -0.22,-6.766 h -1.761 V 9.52 h 1.761 c 0.759,0 1.276,-0.396 1.276,-1.122 0.001,-0.727 -0.517,-1.123 -1.276,-1.123 z m 0.111,3.312 h -1.871 v 2.387 h 1.871 c 0.824,0 1.287,-0.506 1.287,-1.199 0,-0.693 -0.463,-1.188 -1.287,-1.188 z" />
        <path d="M 258.797,14.041 V 6.208 h 5.006 v 1.067 h -3.818 v 2.288 h 3.257 v 1.056 h -3.257 v 2.354 h 3.818 v 1.067 h -5.006 z" />
        <path d="m 268.08,7.275 v 6.766 h -1.188 V 7.275 h -2.156 V 6.208 h 5.501 v 1.067 z" />
        <path d="m 275.43,14.041 -0.539,-1.573 h -3.092 l -0.539,1.573 h -1.266 l 2.871,-7.833 h 0.957 l 2.872,7.833 z m -2.059,-6.062 -1.221,3.477 h 2.41 z" />
      </g>
    </g>
  </g>
</svg>
