<svg xmlns="http://www.w3.org/2000/svg" width="0px" height="auto" viewBox="0 0 320.167 70">
    <g class="olin-o">
        <path d="M76.098 11.517c9.96 14.626-20.372 46.294-34.02 48.97C100.15 65.57 136.725 24 76.098 11.517zM32.176 59.416c-9.188-12.58 17.842-44.692 34.255-48.974-59.053-3.39-94.38 36.573-34.254 48.974z"/>
    </g>
    <g class="olin-name">
        <path d="M134.372 29.753c-1.3 1.3-2.886 2.028-4.992 2.028s-3.718-.728-5.018-2.027c-1.872-1.872-1.82-4.187-1.82-7.384 0-3.2-.052-5.514 1.82-7.386 1.3-1.3 2.912-2.028 5.018-2.028s3.692.73 4.992 2.028c1.872 1.872 1.846 4.187 1.846 7.385 0 3.196.026 5.51-1.846 7.383zm-2.678-12.585c-.52-.598-1.326-.987-2.314-.987s-1.82.39-2.34.988c-.702.78-.884 1.64-.884 5.2 0 3.563.182 4.42.884 5.2.52.6 1.352.988 2.34.988.988 0 1.794-.39 2.314-.988.702-.78.91-1.638.91-5.2 0-3.56-.208-4.42-.91-5.2zM143.472 31.625c-2.782 0-3.952-1.95-3.952-3.874V13.113h3.38v14.43c0 .807.338 1.223 1.196 1.223h1.3v2.86h-1.924zM148.048 15.765v-2.757h3.458v2.757h-3.458zm.052 15.86V18.078h3.38v13.547h-3.38zM163.128 31.625v-8.19c0-1.846-1.17-2.47-2.236-2.47s-2.262.624-2.262 2.47v8.19h-3.38V18.078h3.302v1.248c.884-.936 2.13-1.403 3.38-1.403 1.353 0 2.444.44 3.198 1.195 1.092 1.093 1.377 2.366 1.377 3.85v8.657h-3.38zM182.627 31.78c-2.028 0-3.692-.728-4.992-2.027-1.872-1.872-1.82-4.187-1.82-7.384 0-3.2-.052-5.514 1.82-7.386 1.3-1.3 2.964-2.028 4.992-2.028 3.458 0 6.163 1.977 6.813 5.85h-3.667c-.363-1.48-1.3-2.625-3.12-2.625-.987 0-1.794.365-2.313.963-.7.78-.91 1.664-.91 5.227 0 3.562.21 4.445.91 5.226.52.6 1.326.962 2.314.962 1.82 0 2.756-1.144 3.12-2.626h3.666c-.65 3.873-3.38 5.85-6.813 5.85zM201.66 30.117c-.832.884-2.21 1.664-4.212 1.664-2.003 0-3.354-.78-4.187-1.663-1.22-1.274-1.532-2.81-1.532-5.278 0-2.445.312-3.98 1.533-5.253.833-.885 2.185-1.664 4.188-1.664 2.002 0 3.38.78 4.212 1.664 1.223 1.273 1.534 2.808 1.534 5.252 0 2.47-.312 4.003-1.534 5.277zm-2.626-8.554c-.39-.39-.91-.598-1.586-.598-.677 0-1.17.208-1.56.598-.703.702-.78 1.872-.78 3.276s.077 2.6.78 3.3c.39.392.883.6 1.56.6.676 0 1.196-.208 1.586-.6.702-.7.78-1.896.78-3.3s-.078-2.575-.78-3.277zM210.24 31.625c-2.783 0-3.953-1.95-3.953-3.874V13.113h3.38v14.43c0 .807.34 1.223 1.196 1.223h1.3v2.86h-1.923zM218.69 31.625c-2.782 0-3.952-1.95-3.952-3.874V13.113h3.38v14.43c0 .807.338 1.223 1.196 1.223h1.3v2.86h-1.925zM225.32 25.904c0 1.742 1.064 3.017 2.963 3.017 1.482 0 2.21-.415 3.068-1.273l2.056 2.002c-1.38 1.378-2.705 2.132-5.148 2.132-3.197 0-6.266-1.456-6.266-6.942 0-4.42 2.39-6.916 5.902-6.916 3.77 0 5.902 2.756 5.902 6.474v1.508h-8.476zm4.836-3.77c-.365-.806-1.12-1.403-2.262-1.403-1.145 0-1.898.6-2.264 1.405-.207.494-.285.857-.31 1.456h5.147c-.026-.598-.104-.96-.31-1.455zM241.595 36.747c-2.08 0-3.51-.416-4.914-1.768l2.106-2.134c.754.73 1.508 1.04 2.652 1.04 2.027 0 2.73-1.43 2.73-2.808V29.7c-.885.988-1.898 1.352-3.225 1.352s-2.47-.44-3.225-1.195c-1.273-1.274-1.377-3.017-1.377-5.383s.105-4.082 1.378-5.356c.754-.754 1.924-1.195 3.25-1.195 1.43 0 2.367.39 3.303 1.43V18.08h3.276V31.13c.002 3.25-2.31 5.615-5.95 5.615zm.338-15.782c-2.002 0-2.21 1.716-2.21 3.51s.208 3.536 2.21 3.536 2.236-1.74 2.236-3.535-.235-3.51-2.237-3.51zM253.996 25.904c0 1.742 1.066 3.017 2.965 3.017 1.483 0 2.212-.415 3.07-1.273l2.054 2.002c-1.38 1.378-2.705 2.132-5.148 2.132-3.2 0-6.268-1.456-6.268-6.942 0-4.42 2.393-6.916 5.902-6.916 3.77 0 5.902 2.756 5.902 6.474v1.508h-8.476zm4.837-3.77c-.365-.806-1.12-1.403-2.264-1.403-1.144 0-1.897.6-2.263 1.405-.207.494-.285.857-.313 1.456h5.148c-.023-.598-.1-.96-.31-1.455z"/>
        <path d="M131.13 55.97c-.867.866-2.04 1.35-3.417 1.35-1.377 0-2.55-.483-3.417-1.35-1.3-1.302-1.53-3.19-1.53-4.947 0-1.76.23-3.646 1.53-4.947.867-.866 2.04-1.35 3.417-1.35 1.376 0 2.55.483 3.417 1.35 1.3 1.3 1.53 3.188 1.53 4.947 0 1.758-.23 3.645-1.53 4.946zm-.867-9.053c-.663-.663-1.555-1.045-2.55-1.045-.994 0-1.886.382-2.55 1.045-1.02 1.02-1.096 2.678-1.096 4.105s.077 3.085 1.097 4.104c.663.663 1.555 1.046 2.55 1.046.994 0 1.887-.383 2.55-1.046 1.02-1.02 1.096-2.677 1.096-4.104s-.077-3.085-1.097-4.105zM138.577 45.846v11.32h-1.3v-11.32h-1.683v-.97h1.683v-2.65c0-1.86 1.02-3.213 2.958-3.213h1.122v1.147h-.892c-1.3 0-1.887.765-1.887 2.04v2.677h2.78v.97h-2.78zM151.48 57.167V39.013h11.014v1.224h-9.638v7.165h8.21v1.224h-8.21v7.318h9.638v1.224H151.48zM174.555 57.167v-7.624c0-2.37-1.198-3.67-3.392-3.67-2.192 0-3.467 1.35-3.467 3.67v7.624h-1.3v-12.29h1.3v1.454c.918-1.07 2.142-1.605 3.62-1.605 1.377 0 2.474.407 3.264 1.173.815.79 1.274 1.963 1.274 3.416v7.854h-1.3zM184.45 63.185c-1.836 0-2.754-.484-4.054-1.632l.866-.867c.97.867 1.632 1.352 3.188 1.352 2.575 0 3.723-1.836 3.723-4.258v-2.193c-1.07 1.428-2.27 1.734-3.646 1.734-1.274 0-2.37-.433-3.01-1.07-1.248-1.25-1.58-3.29-1.58-5.227 0-1.938.332-3.978 1.58-5.228.64-.638 1.735-1.07 3.01-1.07 1.377 0 2.575.306 3.646 1.733v-1.58h1.3v12.978c0 3.084-1.837 5.33-5.023 5.33zm.255-17.313c-3.01 0-3.468 2.6-3.468 5.15s.46 5.15 3.468 5.15 3.468-2.6 3.468-5.15-.46-5.15-3.468-5.15zM194.267 40.62v-1.607h1.607v1.606h-1.607zm.153 16.547v-12.29h1.3v12.29h-1.3zM208.827 57.167v-7.624c0-2.37-1.198-3.67-3.392-3.67-2.192 0-3.467 1.35-3.467 3.67v7.624h-1.3v-12.29h1.3v1.454c.918-1.07 2.142-1.605 3.62-1.605 1.377 0 2.474.407 3.264 1.173.815.79 1.274 1.963 1.274 3.416v7.854h-1.3zM215.508 51.303c0 3.11 1.402 4.845 4.003 4.845 1.454 0 2.347-.434 3.392-1.48l.97.767c-1.25 1.25-2.397 1.887-4.437 1.887-3.39 0-5.227-2.193-5.227-6.298 0-3.952 1.836-6.298 4.92-6.298 3.06 0 4.922 2.243 4.922 5.99v.588h-8.542zm6.808-3.366c-.535-1.274-1.785-2.064-3.188-2.064s-2.65.79-3.187 2.064c-.305.766-.38 1.147-.433 2.32h7.24c-.048-1.173-.124-1.555-.43-2.32zM228.845 51.303c0 3.11 1.402 4.845 4.002 4.845 1.455 0 2.346-.434 3.393-1.48l.97.767c-1.25 1.25-2.397 1.887-4.44 1.887-3.39 0-5.226-2.193-5.226-6.298 0-3.952 1.836-6.298 4.922-6.298 3.06 0 4.92 2.243 4.92 5.99v.588h-8.54zm6.807-3.366c-.535-1.274-1.783-2.064-3.186-2.064s-2.652.79-3.188 2.064c-.307.766-.383 1.147-.434 2.32h7.24c-.05-1.173-.126-1.555-.432-2.32zM248.503 46.84c-.738-.738-1.3-.968-2.32-.968-2.115 0-3.29 1.733-3.29 3.723v7.572h-1.298v-12.29h1.3v1.632c.714-1.148 2.142-1.785 3.595-1.785 1.174 0 2.092.306 2.957 1.173l-.944.943zM251.87 40.62v-1.607h1.608v1.606h-1.607zm.155 16.547v-12.29h1.3v12.29h-1.3zM266.43 57.167v-7.624c0-2.37-1.198-3.67-3.392-3.67-2.19 0-3.467 1.35-3.467 3.67v7.624h-1.3v-12.29h1.3v1.454c.92-1.07 2.142-1.605 3.622-1.605 1.377 0 2.473.407 3.264 1.173.814.79 1.273 1.963 1.273 3.416v7.854h-1.3zM276.326 63.185c-1.836 0-2.754-.484-4.055-1.632l.868-.867c.97.867 1.63 1.352 3.188 1.352 2.574 0 3.723-1.836 3.723-4.258v-2.193c-1.073 1.428-2.27 1.734-3.647 1.734-1.275 0-2.37-.433-3.01-1.07-1.248-1.25-1.58-3.29-1.58-5.227 0-1.938.332-3.978 1.58-5.228.64-.638 1.734-1.07 3.01-1.07 1.377 0 2.574.306 3.646 1.733v-1.58h1.298v12.978c0 3.084-1.835 5.33-5.022 5.33zm.254-17.313c-3.008 0-3.467 2.6-3.467 5.15s.46 5.15 3.467 5.15c3.01 0 3.47-2.6 3.47-5.15s-.46-5.15-3.47-5.15z"/>
    </g>
</svg>